<svg width="22" height="18" viewBox="0 0 22 18" fill="none" xmlns="http://www.w3.org/2000/svg">
<path d="M3.66667 3.6H5.5V14.4H3.66667V3.6ZM6.41667 3.6H7.33333V14.4H6.41667V3.6ZM8.25 3.6H11V14.4H8.25V3.6ZM11.9167 3.6H12.8333V14.4H11.9167V3.6ZM14.6667 3.6H16.5V14.4H14.6667V3.6ZM17.4167 3.6H18.3333V14.4H17.4167V3.6ZM1.83333 1.8V5.4H0V1.8C0 1.32261 0.193154 0.864773 0.536971 0.527208C0.880788 0.189642 1.3471 0 1.83333 0H5.5V1.8H1.83333ZM20.1667 0C20.6529 0 21.1192 0.189642 21.463 0.527208C21.8068 0.864773 22 1.32261 22 1.8V5.4H20.1667V1.8H16.5V0H20.1667ZM1.83333 12.6V16.2H5.5V18H1.83333C1.3471 18 0.880788 17.8104 0.536971 17.4728C0.193154 17.1352 0 16.6774 0 16.2V12.6H1.83333ZM20.1667 16.2V12.6H22V16.2C22 16.6774 21.8068 17.1352 21.463 17.4728C21.1192 17.8104 20.6529 18 20.1667 18H16.5V16.2H20.1667Z" fill="white"/>
</svg>
