<svg width="18" height="18" viewBox="0 0 18 18" fill="none" xmlns="http://www.w3.org/2000/svg">
<path fill-rule="evenodd" clip-rule="evenodd" d="M2.50036 15.4489H12.5333C12.9474 15.4489 13.2834 15.7967 13.2834 16.2252C13.2834 16.6537 12.9474 17.0014 12.5333 17.0014H1.75018C1.33608 17.0014 1 16.6537 1 16.2252V1.77624C1 1.34776 1.33608 1 1.75018 1H12.5333C12.9474 1 13.2834 1.34776 13.2834 1.77624C13.2834 2.20472 12.9474 2.55248 12.5333 2.55248H2.50036V15.4489ZM14.1531 7.11945L16.8507 8.73092C17.0503 8.85046 17.0503 9.14854 16.8507 9.26808L14.1531 10.8811C13.952 11.0006 13.703 10.8501 13.703 10.611V9.77574H7.12691C6.71281 9.77574 6.37673 9.42799 6.37673 8.9995C6.37673 8.57102 6.71281 8.22326 7.12691 8.22326H13.703V7.38803C13.703 7.14894 13.952 6.99991 14.1531 7.11945Z" fill="white"/>
<path d="M2.50036 15.4489H2.25036V15.6989H2.50036V15.4489ZM2.50036 2.55248V2.30248H2.25036V2.55248H2.50036ZM16.8507 8.73092L16.9792 8.51646L16.9789 8.5163L16.8507 8.73092ZM14.1531 7.11945L14.2813 6.90482L14.2809 6.90456L14.1531 7.11945ZM16.8507 9.26808L16.979 9.48265L16.9792 9.48254L16.8507 9.26808ZM14.1531 10.8811L14.2809 11.096L14.2814 11.0957L14.1531 10.8811ZM13.703 9.77574H13.953V9.52574H13.703V9.77574ZM13.703 8.22326V8.47326H13.953V8.22326H13.703ZM12.5333 15.1989H2.50036V15.6989H12.5333V15.1989ZM13.5334 16.2252C13.5334 15.6667 13.0934 15.1989 12.5333 15.1989V15.6989C12.8013 15.6989 13.0334 15.9266 13.0334 16.2252H13.5334ZM12.5333 17.2514C13.0934 17.2514 13.5334 16.7836 13.5334 16.2252H13.0334C13.0334 16.5237 12.8013 16.7514 12.5333 16.7514V17.2514ZM1.75018 17.2514H12.5333V16.7514H1.75018V17.2514ZM0.75 16.2252C0.75 16.7836 1.19003 17.2514 1.75018 17.2514V16.7514C1.48213 16.7514 1.25 16.5237 1.25 16.2252H0.75ZM0.75 1.77624V16.2252H1.25V1.77624H0.75ZM1.75018 0.75C1.19003 0.75 0.75 1.2178 0.75 1.77624H1.25C1.25 1.47771 1.48213 1.25 1.75018 1.25V0.75ZM12.5333 0.75H1.75018V1.25H12.5333V0.75ZM13.5334 1.77624C13.5334 1.2178 13.0934 0.75 12.5333 0.75V1.25C12.8013 1.25 13.0334 1.47771 13.0334 1.77624H13.5334ZM12.5333 2.80248C13.0934 2.80248 13.5334 2.33468 13.5334 1.77624H13.0334C13.0334 2.07477 12.8013 2.30248 12.5333 2.30248V2.80248ZM2.50036 2.80248H12.5333V2.30248H2.50036V2.80248ZM2.75036 15.4489V2.55248H2.25036V15.4489H2.75036ZM16.9789 8.5163L14.2813 6.90482L14.0249 7.33407L16.7225 8.94554L16.9789 8.5163ZM16.9792 9.48254C17.3408 9.26593 17.3408 8.73307 16.9792 8.51646L16.7223 8.94538C16.7388 8.95532 16.7504 8.97347 16.7504 8.9995C16.7504 9.02553 16.7388 9.04368 16.7223 9.05362L16.9792 9.48254ZM14.2814 11.0957L16.979 9.48265L16.7224 9.05351L14.0248 10.6665L14.2814 11.0957ZM13.453 10.611C13.453 11.0273 13.8991 11.323 14.2809 11.096L14.0253 10.6662C14.0154 10.6721 14.0082 10.6731 14.003 10.673C13.9969 10.6729 13.9894 10.6711 13.9815 10.6663C13.9663 10.6571 13.953 10.6393 13.953 10.611H13.453ZM13.453 9.77574V10.611H13.953V9.77574H13.453ZM7.12691 10.0257H13.703V9.52574H7.12691V10.0257ZM6.12673 8.9995C6.12673 9.55794 6.56676 10.0257 7.12691 10.0257V9.52574C6.85886 9.52574 6.62673 9.29803 6.62673 8.9995H6.12673ZM7.12691 7.97326C6.56676 7.97326 6.12673 8.44106 6.12673 8.9995H6.62673C6.62673 8.70097 6.85886 8.47326 7.12691 8.47326V7.97326ZM13.703 7.97326H7.12691V8.47326H13.703V7.97326ZM13.453 7.38803V8.22326H13.953V7.38803H13.453ZM14.2809 6.90456C13.9009 6.67866 13.453 6.96948 13.453 7.38803H13.953C13.953 7.35987 13.966 7.34273 13.9808 7.33388C13.9886 7.32927 13.9961 7.32743 14.0023 7.32732C14.0077 7.32723 14.0152 7.3283 14.0253 7.33433L14.2809 6.90456Z" fill="white"/>
</svg>
