<svg width="78" height="98" viewBox="0 0 78 98" fill="none" xmlns="http://www.w3.org/2000/svg">
<path fill-rule="evenodd" clip-rule="evenodd" d="M22.8254 4.84548C22.0407 8.80428 24.7626 12.1751 27.5478 13.4844C24.6684 16.586 21.0397 22.0712 19.591 27.2449C17.6658 34.1206 20.6912 42.9216 25.0917 47.3221C28.8823 50.8784 30.8778 51.9262 36.3939 54.8225L36.918 55.0977C41.0939 57.2914 44.1581 57.8548 47.5561 58.4796L47.5561 58.4796L47.5562 58.4796L47.5562 58.4796L47.5563 58.4796C48.6365 58.6782 49.7504 58.883 50.9445 59.1484C55.4206 60.143 62.145 57.7652 67.2553 55.4706C61.2261 62.2948 52.3007 65.9888 41.6093 65.9888C21.7934 65.9888 7 52.2236 7 32.9888C7 20.5996 13.1373 10.4796 22.8254 4.84548ZM42.7059 0C42.7035 0.0957175 42.6994 0.193008 42.6936 0.291899C42.5336 3.01101 42.2671 4.92589 42.063 6.0154C44.2961 5.48236 46.7293 5.16469 49.2943 5.24242C57.0327 5.47692 62.1719 9.31027 65.9053 12.9921C66.0014 12.7966 66.1013 12.5928 66.2042 12.3828L66.2046 12.382L66.2046 12.3819C66.5157 11.7471 66.8545 11.0559 67.2007 10.3655C61.3644 3.87425 52.8366 0.225888 42.7059 0ZM42.6936 21.2944C44.3438 20.1943 47.3691 18.719 49.0193 18.719C50.6694 18.719 51.7696 18.994 52.3196 19.8191C52.8697 20.6442 54 22.4889 51.7696 24.7697C49.9654 26.6146 48.9497 27.9857 48.1867 29.0157C47.1588 30.4034 46.5896 31.1719 45.1688 31.6454C42.6936 32.4705 41.3184 32.1955 40.2183 30.2703C39.1182 28.3451 38.8431 27.52 38.8431 26.4198C38.8431 25.3197 39.9474 23.2196 42.6936 21.2944ZM64.9119 30.2703C64.658 29.386 64.421 28.5609 64.421 27.795C64.421 26.1449 65.2461 24.7697 66.3462 24.7697C67.4464 24.7697 68 26.4889 68.5 28.9889C68.6159 29.5684 68.7417 30.1108 68.8637 30.6367L68.8638 30.6374L68.8639 30.6377C69.196 32.0695 69.5 33.38 69.5 34.9889C69.5 37.1892 68.8215 40.4464 66.8963 40.4464C64.9711 40.4464 65.2461 39.0713 65.5211 37.6961C65.7412 36.596 65.6128 34.4874 65.5211 33.5707C65.5211 32.3916 65.2052 31.2915 64.912 30.2704L64.9119 30.2703ZM52.8697 36.0459C52.8697 36.7675 54.4079 37.844 56.0097 38.9651L56.0097 38.9651L56.0098 38.9651L56.0099 38.9652C56.8501 39.5533 57.7079 40.1536 58.3703 40.7214C59.4704 40.7214 62.8289 39.8673 63.3209 39.6213C63.8709 39.3463 64.421 38.7962 64.421 37.9711C64.421 37.4211 63.0458 36.046 61.1206 35.2209C59.4244 34.4939 58.7957 34.4075 57.3535 34.2091L57.3534 34.2091L57.3526 34.209C57.1581 34.1822 56.9488 34.1535 56.7201 34.1208C56.1113 34.0338 53.9698 33.8457 53.4198 34.1207C53.1447 34.3957 52.8697 34.9458 52.8697 36.0459ZM53.7039 48.4234C53.4353 48.4228 53.1573 48.4223 52.8697 48.4223C49 46.4889 45.9023 43.1967 44.8938 41.2715C46.0329 42.2207 48 43.4889 51 44.4879C52.1599 44.6823 53.4209 44.5599 55.0216 44.4046L55.0218 44.4046L55.0218 44.4046L55.0225 44.4045L55.0238 44.4044C55.3874 44.3691 55.7686 44.3322 56.1701 44.2968C56.2554 44.6052 56.3187 44.8673 56.3743 45.0974L56.3743 45.0975C56.5335 45.7569 56.6294 46.1541 57 46.6274C57.118 46.7127 57.2361 46.8058 57.3597 46.9032C57.7595 47.2185 58.2173 47.5794 58.9204 47.8722C58.0845 48.4322 56.3584 48.4287 53.7039 48.4234ZM18.16 96.9888V80.9333L22.06 77.3187V96.9888H18.16ZM71.6396 83.3388C69.9146 83.3388 68.4146 83.8888 67.3646 84.9388V76.4388L63.4647 80.0592V96.9888H67.3646V90.3388C67.3646 87.8638 68.7147 86.7138 70.5897 86.7138C72.3147 86.7138 73.3147 87.7138 73.3147 89.8888V96.9888H77.2147V89.2888C77.2147 85.1888 74.8147 83.3388 71.6396 83.3388ZM9.475 97.2888C12.525 97.2888 15.05 96.1888 16.7 94.1638L14.1 91.7638C12.925 93.1388 11.45 93.8388 9.7 93.8388C6.425 93.8388 4.1 91.5388 4.1 88.2388C4.1 84.9388 6.425 82.6388 9.7 82.6388C11.45 82.6388 12.925 83.3388 14.1 84.6888L16.7 82.2888C15.05 80.2888 12.525 79.1888 9.5 79.1888C4.05 79.1888 0 82.9638 0 88.2388C0 93.5138 4.05 97.2888 9.475 97.2888ZM33.0795 90.1888V83.5388H36.9795V96.9888H33.2795V95.3888C32.2545 96.5638 30.7545 97.1888 29.1045 97.1888C25.7295 97.1888 23.3545 95.2888 23.3545 91.1388V83.5388H27.2545V90.5638C27.2545 92.8138 28.2545 93.8138 29.9795 93.8138C31.7795 93.8138 33.0795 92.6638 33.0795 90.1888ZM47.4676 93.5888C47.0426 93.9138 46.4676 94.0888 45.8926 94.0888C44.8426 94.0888 44.2176 93.4638 44.2176 92.3138V86.8388H47.5676V83.8388H44.2176V80.5638H40.3176V83.8388H38.2426V86.8388H40.3176V92.3638C40.3176 95.5638 42.1676 97.1888 45.3426 97.1888C46.5426 97.1888 47.7176 96.9138 48.5176 96.3388L47.4676 93.5888ZM62.0668 93.7888C61.0918 95.9388 58.8668 97.1888 56.0418 97.1888C51.6668 97.1888 48.5418 94.3138 48.5418 90.2638C48.5418 86.2138 51.6668 83.3388 56.0418 83.3388C58.8668 83.3388 61.0918 84.5638 62.0668 86.7638L59.0418 88.3888C58.3168 87.1138 57.2418 86.5388 56.0168 86.5388C54.0418 86.5388 52.4918 87.9138 52.4918 90.2638C52.4918 92.6138 54.0418 93.9888 56.0168 93.9888C57.2418 93.9888 58.3168 93.4388 59.0418 92.1388L62.0668 93.7888Z" fill="white"/>
</svg>
