<svg width="18" height="20" viewBox="0 0 18 20" fill="none" xmlns="http://www.w3.org/2000/svg">
<path fill-rule="evenodd" clip-rule="evenodd" d="M6.68704 18.8621C6.72404 19.0841 6.9183 19.2506 7.14956 19.2506H10.8498C11.081 19.2506 11.2753 19.0841 11.3123 18.8621L11.6546 16.4107C12.2374 16.1794 12.7369 15.8649 13.2179 15.5041L15.5213 16.4292C15.7248 16.5124 15.9746 16.4292 16.0856 16.2257L17.9357 13.025C18.056 12.8215 18.0005 12.5717 17.8247 12.4329L15.8728 10.9251L15.9376 10.0001L15.8728 9.075L17.8247 7.56716C18.0005 7.4284 18.056 7.17864 17.9357 6.97513L16.0856 3.77444C15.9746 3.57093 15.7248 3.48767 15.5213 3.57093L13.2179 4.49598C12.7369 4.13521 12.2374 3.82069 11.6546 3.58943L11.3123 1.13803C11.2753 0.916022 11.081 0.749512 10.8498 0.749512H7.14956C6.9183 0.749512 6.72404 0.916022 6.68704 1.13803L6.34477 3.58943C5.76198 3.82069 5.26245 4.13521 4.78142 4.49598L2.47804 3.57093C2.27453 3.48767 2.02476 3.57093 1.91376 3.77444L0.0636472 6.97513C-0.0566099 7.17864 -0.0011065 7.4284 0.174654 7.56716L2.12652 9.075L2.06176 10.0001L2.12652 10.8974L0.174654 12.4329C-0.0011065 12.5717 -0.0566099 12.8215 0.0636472 13.025L1.91376 16.2257C2.02476 16.4292 2.27453 16.5032 2.47804 16.4292L4.78142 15.4949C5.26245 15.8649 5.76198 16.1794 6.34477 16.4107L6.68704 18.8621ZM7.03748 8.03772C7.55793 7.51727 8.2638 7.22489 8.99982 7.22489C9.73584 7.22489 10.4417 7.51727 10.9622 8.03772C11.4826 8.55816 11.775 9.26404 11.775 10.0001C11.775 10.7361 11.4826 11.4419 10.9622 11.9624C10.4417 12.4828 9.73584 12.7752 8.99982 12.7752C8.2638 12.7752 7.55793 12.4828 7.03748 11.9624C6.51704 11.4419 6.22466 10.7361 6.22466 10.0001C6.22466 9.26404 6.51704 8.55816 7.03748 8.03772Z" fill="white"/>
</svg>
