<svg width="20" height="22" viewBox="0 0 20 22" fill="none" xmlns="http://www.w3.org/2000/svg">
<path d="M15.7562 14.4405C14.723 14.4405 13.8017 14.932 13.2073 15.6953L7.25395 12.2202C7.40416 11.8428 7.48765 11.4312 7.48765 11C7.48765 10.5689 7.40412 10.1573 7.25395 9.77987L13.2073 6.30472C13.8017 7.068 14.723 7.55956 15.7562 7.55956C17.5448 7.55956 19 6.08823 19 4.2798C19 2.47133 17.5449 1 15.7562 1C13.9675 1 12.5123 2.47129 12.5123 4.27972C12.5123 4.71089 12.5959 5.12253 12.7461 5.50003L6.79288 8.97518C6.19841 8.21182 5.27713 7.72022 4.24384 7.72022C2.45517 7.72022 1 9.19155 1 11C1 12.8084 2.45517 14.2797 4.24384 14.2797C5.27713 14.2797 6.19841 13.7881 6.79288 13.0248L12.7461 16.5C12.5959 16.8775 12.5123 17.2891 12.5123 17.7203C12.5123 19.5288 13.9675 21 15.7562 21C17.5448 21 19 19.5287 19 17.7203C19 15.9118 17.5449 14.4405 15.7562 14.4405ZM15.7562 1.93C17.0376 1.93 18.0802 2.9841 18.0802 4.27972C18.0802 5.57538 17.0377 6.62952 15.7562 6.62952C14.4747 6.62952 13.4321 5.57538 13.4321 4.27972C13.4321 2.98406 14.4747 1.93 15.7562 1.93ZM4.24384 13.3498C2.96237 13.3498 1.91978 12.2956 1.91978 11C1.91978 9.70432 2.96233 8.65018 4.24384 8.65018C5.52532 8.65018 6.56791 9.70432 6.56791 11C6.56791 12.2956 5.52532 13.3498 4.24384 13.3498ZM15.7562 20.07C14.4747 20.07 13.4321 19.0159 13.4321 17.7202C13.4321 16.4246 14.4746 15.3704 15.7562 15.3704C17.0376 15.3704 18.0802 16.4246 18.0802 17.7202C18.0802 19.0159 17.0376 20.07 15.7562 20.07Z" fill="white" stroke="white" stroke-width="0.9"/>
</svg>
