<svg width="16" height="14" viewBox="0 0 16 14" fill="none" xmlns="http://www.w3.org/2000/svg">
<path d="M15.0799 6.42L11.0399 0.77C10.6999 0.29 10.1499 0 9.55992 0C8.06992 0 7.20992 1.68 8.06992 2.89L10.9999 7L8.06992 11.11C7.19992 12.32 8.06992 14 9.55992 14C10.1499 14 10.7099 13.71 11.0499 13.23L15.0899 7.58C15.3299 7.23 15.3299 6.77 15.0799 6.42Z" fill="white"/>
<path d="M8.07992 6.42L4.04992 0.77C3.69992 0.29 3.14992 0 2.55992 0C1.06992 0 0.199916 1.68 1.06992 2.89L3.99992 7L1.06992 11.11C0.199916 12.32 1.06992 14 2.55992 14C3.14992 14 3.70992 13.71 4.04992 13.23L8.08992 7.58C8.32992 7.23 8.32992 6.77 8.07992 6.42Z" fill="white"/>
</svg>
