<svg width="160" height="71" viewBox="0 0 160 71" fill="none" xmlns="http://www.w3.org/2000/svg">
<path fill-rule="evenodd" clip-rule="evenodd" d="M16.8592 5.16269C16.0237 9.37976 18.9232 12.9704 21.8902 14.3652C18.8226 17.6694 14.9569 23.5128 13.4136 29.0245C11.3627 36.3494 14.5856 45.7252 19.2735 50.4131C23.3118 54.2018 25.4377 55.318 31.314 58.4035L31.8723 58.6967C36.3211 61.0337 39.5854 61.6339 43.2054 62.2994L43.2055 62.2995C44.3563 62.511 45.543 62.7292 46.8151 63.0119C51.5838 64.0716 58.7479 61.5381 64.1922 59.0936C57.769 66.3642 48.2603 70.2999 36.87 70.2999C15.7597 70.2999 0 55.6356 0 35.1444C0 21.9459 6.53824 11.1648 16.8592 5.16269ZM38.0384 0.000732422C38.0358 0.102465 38.0315 0.205867 38.0253 0.310964C37.8549 3.20768 37.5709 5.24763 37.3536 6.40831C39.7325 5.84047 42.3246 5.50205 45.0571 5.58485C53.3009 5.83466 58.7758 9.91835 62.753 13.8407C62.8554 13.6323 62.9618 13.4152 63.0715 13.1914L63.0718 13.1908L63.0719 13.1906L63.0728 13.1887C63.4039 12.5131 63.7644 11.7776 64.1327 11.043C57.9153 4.12799 48.8306 0.24141 38.0384 0.000732422ZM38.0252 22.6853C39.7832 21.5133 43.0061 19.9417 44.7641 19.9417C46.5221 19.9417 47.694 20.2347 48.28 21.1136C48.866 21.9926 50.0702 23.9578 47.694 26.3876C45.772 28.353 44.69 29.8137 43.8771 30.911C42.7821 32.3893 42.1757 33.2079 40.6622 33.7124C38.0252 34.5914 36.5602 34.2984 35.3882 32.2475C34.2163 30.1965 33.9233 29.3175 33.9233 28.1455C33.9233 26.9736 35.0997 24.7362 38.0252 22.6853ZM61.6945 32.2475C61.424 31.3054 61.1715 30.4264 61.1715 29.6106C61.1715 27.8526 62.0505 26.3876 63.2225 26.3876C64.3945 26.3876 64.9843 28.2192 65.517 30.8825C65.6405 31.5 65.7745 32.078 65.9045 32.6385L65.9046 32.6386L65.9046 32.6389C66.2584 34.1642 66.5823 35.5604 66.5823 37.2744C66.5823 39.6183 65.8595 43.0884 63.8085 43.0884C61.7575 43.0884 62.0505 41.6234 62.3435 40.1584C62.5779 38.9864 62.4412 36.7401 62.3435 35.7635C62.3435 34.5073 62.0069 33.3354 61.6945 32.2475ZM48.8657 38.4004C48.8657 39.1691 50.5044 40.316 52.2108 41.5103L52.2109 41.5103L52.2109 41.5103C53.1061 42.1368 54.02 42.7764 54.7257 43.3813C55.8976 43.3813 59.4754 42.4714 59.9996 42.2093C60.5856 41.9164 61.1716 41.3303 61.1716 40.4514C61.1716 39.8654 59.7066 38.4005 57.6556 37.5215C55.8486 36.747 55.1788 36.6549 53.6424 36.4436L53.6422 36.4436C53.4348 36.4151 53.2116 36.3844 52.9677 36.3495C52.3191 36.2569 50.0377 36.0564 49.4517 36.3494C49.1587 36.6424 48.8657 37.2284 48.8657 38.4004ZM49.7547 51.5863L49.746 51.5863C49.4626 51.5857 49.1693 51.5852 48.8661 51.5852C44.7436 49.5255 41.4435 46.0182 40.3692 43.9673C41.5826 44.9785 43.6782 46.3295 46.8742 47.3938C48.1099 47.6009 49.4533 47.4705 51.1586 47.3051H51.1587H51.1587L51.159 47.305L51.1595 47.305C51.5473 47.2674 51.9538 47.2279 52.382 47.1902C52.4729 47.5188 52.5403 47.798 52.5995 48.0432C52.7691 48.7457 52.8713 49.1688 53.2661 49.673C53.3919 49.7639 53.5176 49.8631 53.6493 49.9669C54.0752 50.3027 54.5629 50.6872 55.312 50.9992C54.4215 51.5958 52.5826 51.5921 49.7547 51.5863ZM97.088 45.7968V28.6925L101.243 24.8418V45.7968H97.088ZM154.061 31.2552C152.223 31.2552 150.625 31.8411 149.507 32.9597V23.9045L145.352 27.7613V45.7968H149.507V38.7124C149.507 36.0758 150.945 34.8507 152.942 34.8507C154.78 34.8507 155.845 35.916 155.845 38.233V45.7968H160V37.5939C160 33.226 157.443 31.2552 154.061 31.2552ZM87.8357 46.1164C91.085 46.1164 93.7749 44.9446 95.5327 42.7873L92.7628 40.2305C91.5111 41.6953 89.9397 42.4411 88.0754 42.4411C84.5865 42.4411 82.1096 39.9908 82.1096 36.4753C82.1096 32.9597 84.5865 30.5095 88.0754 30.5095C89.9397 30.5095 91.5111 31.2552 92.7628 32.6934L95.5327 30.1366C93.7749 28.006 91.085 26.8341 87.8624 26.8341C82.0564 26.8341 77.7418 30.8557 77.7418 36.4753C77.7418 42.0948 82.0564 46.1164 87.8357 46.1164ZM112.982 38.5526V31.4683H117.137V45.7968H113.195V44.0923C112.103 45.3441 110.505 46.0099 108.747 46.0099C105.152 46.0099 102.622 43.9858 102.622 39.5647V31.4683H106.777V38.9521C106.777 41.3491 107.842 42.4144 109.68 42.4144C111.597 42.4144 112.982 41.1893 112.982 38.5526ZM128.31 42.1747C127.857 42.521 127.245 42.7074 126.632 42.7074C125.514 42.7074 124.848 42.0416 124.848 40.8164V34.9838H128.417V31.7879H124.848V28.2989H120.693V31.7879H118.482V34.9838H120.693V40.8697C120.693 44.2787 122.664 46.0099 126.046 46.0099C127.325 46.0099 128.576 45.7169 129.429 45.1044L128.31 42.1747ZM143.863 42.3878C142.824 44.6782 140.454 46.0099 137.444 46.0099C132.783 46.0099 129.454 42.9471 129.454 38.6325C129.454 34.318 132.783 31.2552 137.444 31.2552C140.454 31.2552 142.824 32.5602 143.863 34.9039L140.64 36.6351C139.868 35.2768 138.723 34.6642 137.418 34.6642C135.314 34.6642 133.662 36.129 133.662 38.6325C133.662 41.136 135.314 42.6009 137.418 42.6009C138.723 42.6009 139.868 42.0149 140.64 40.63L143.863 42.3878Z" fill="white"/>
</svg>
